<svg height="166px" width="166px" version="1.1" id="Layer_1" xmlns="http://www.w3.org/2000/svg" xmlns:xlink="http://www.w3.org/1999/xlink" viewBox="-81.38 -81.38 671.37 671.37" xml:space="preserve" fill="#000000" stroke="#000000" stroke-width="0.00508609"><g id="SVGRepo_bgCarrier" stroke-width="0" transform="translate(0,0), scale(1)"><rect x="-81.38" y="-81.38" width="671.37" height="671.37" rx="335.685" fill="#ecda7e" strokewidth="0"></rect></g><g id="SVGRepo_tracerCarrier" stroke-linecap="round" stroke-linejoin="round" stroke="#CCCCCC" stroke-width="1.017218"></g><g id="SVGRepo_iconCarrier"> <path style="fill:#9D90C5;" d="M468.938,508.609H38.993V408.583c0-26.109,19.327-48.827,46.792-55.269l168.519-40.011 l168.519,40.011c27.465,6.442,46.792,29.16,46.792,55.269v100.026H468.938z"></path> <polygon style="fill:#D34A5E;" points="326.866,330.596 253.966,313.303 182.421,330.257 182.421,508.609 326.866,508.609 "></polygon> <path style="fill:#EEB490;" d="M201.748,277.701v59.677c0,28.821,23.396,52.217,52.217,52.217s52.217-23.396,52.217-52.217v-59.677 H201.748z"></path> <path style="fill:#56545F;" d="M405.192,160.721c0-16.954-10.511-31.873-25.43-37.976c6.781-8.477,10.85-18.988,10.85-30.856 c0-26.787-21.023-48.487-47.47-49.505C340.09,18.649,319.746,0,294.993,0c-17.293,0-32.551,9.155-41.028,23.057 C245.489,9.494,230.23,0,212.938,0c-24.752,0-45.097,18.649-48.148,42.384c-26.448,1.017-47.47,22.718-47.47,49.505 c0,11.528,4.069,22.379,10.85,30.856c-14.919,6.103-25.43,20.683-25.43,37.976c0,14.919,8.138,28.143,20.005,35.264 c-3.391,5.764-5.425,12.207-5.425,19.327c0,20.344,16.615,36.959,36.959,36.959c15.258,0,28.143-9.155,33.907-22.04 c17.971,13.902,40.689,22.04,65.78,22.04s47.809-8.477,65.78-22.04c5.764,13.224,18.649,22.04,33.907,22.04 c20.344,0,36.959-16.615,36.959-36.959c0-7.121-2.034-13.563-5.425-19.327C397.054,188.524,405.192,175.64,405.192,160.721z"></path> <path style="fill:#FACCB4;" d="M292.281,114.946c-10.172,9.155-23.396,14.919-38.315,14.919c-14.58,0-28.143-5.764-38.315-14.919 c-6.781,18.649-24.752,32.212-46.114,32.212h-0.339v100.366c0,46.792,37.976,84.429,84.429,84.429 c46.792,0,84.429-37.976,84.429-84.429V146.819h-0.339C317.033,146.819,299.062,133.595,292.281,114.946z"></path> <g> <polygon style="fill:#877DB2;" points="201.748,325.849 201.748,508.609 169.536,508.609 142.411,410.956 169.536,389.595 142.411,371.285 169.536,333.648 "></polygon> <polygon style="fill:#877DB2;" points="308.895,325.849 308.895,508.609 341.107,508.609 368.233,410.956 341.107,389.595 368.233,371.285 341.107,333.648 "></polygon> </g> <path style="fill:#F2BDA5;" d="M295.672,274.988c0-12.546-10.172-23.057-23.057-23.057h-38.993 c-12.546,0-23.057,10.172-23.057,23.057c-30.177,0-41.367-66.797-41.367-66.797v44.079c0,69.849,72.223,78.665,83.073,79.682l0,0 c0,0,0.339,0,0.678,0s0.678,0,0.678,0l0,0c11.189-1.017,83.073-9.833,83.073-79.682v-44.079 C337.038,208.191,325.849,274.988,295.672,274.988z"></path> </g></svg>